<svg width="138" height="46" viewBox="0 0 138 46" fill="none" xmlns="http://www.w3.org/2000/svg">
<g filter="url(#filter0_b_2057_2970)">
<rect width="46" height="46" rx="23" fill="#DAC5A7" fill-opacity="0.05"/>
<rect x="0.5" y="0.5" width="45" height="45" rx="22.5" stroke="#DAC5A7" stroke-opacity="0.15"/>
<path d="M28.9533 24.5781L23.3283 30.2031C23.286 30.2476 23.2351 30.2829 23.1787 30.3071C23.1223 30.3313 23.0615 30.3438 23.0002 30.3438C22.9388 30.3438 22.8781 30.3313 22.8217 30.3071C22.7653 30.2829 22.7144 30.2476 22.672 30.2031L17.047 24.5781C16.96 24.4911 16.9111 24.3731 16.9111 24.25C16.9111 24.1269 16.96 24.0089 17.047 23.9219C17.1341 23.8349 17.2521 23.786 17.3752 23.786C17.4982 23.786 17.6163 23.8349 17.7033 23.9219L22.5314 28.7422V16.125C22.5314 16.0007 22.5808 15.8815 22.6687 15.7935C22.7566 15.7056 22.8759 15.6562 23.0002 15.6562C23.1245 15.6562 23.2437 15.7056 23.3316 15.7935C23.4195 15.8815 23.4689 16.0007 23.4689 16.125V28.7422L28.297 23.9219C28.3841 23.8349 28.5021 23.786 28.6252 23.786C28.7482 23.786 28.8663 23.8349 28.9533 23.9219C29.0403 24.0089 29.0892 24.1269 29.0892 24.25C29.0892 24.3731 29.0403 24.4911 28.9533 24.5781Z" fill="#DAC5A7"/>
</g>
<path d="M63.131 28.5L64.041 26.03H68.331L69.241 28.5H70.216L66.758 19.192H65.601L62.182 28.5H63.131ZM66.056 20.505C66.108 20.375 66.16 20.206 66.173 20.128C66.186 20.219 66.251 20.375 66.29 20.505L68.032 25.211H64.327L66.056 20.505ZM73.0099 28.5H76.6109C78.3789 28.5 79.4969 27.551 79.4969 26.056C79.4969 24.912 78.9509 24.158 77.8719 23.807C78.8339 23.43 79.3149 22.689 79.3149 21.597C79.3149 20.102 78.2099 19.192 76.4159 19.192H73.0099V28.5ZM76.4029 20.024C77.6509 20.024 78.3529 20.635 78.3529 21.675C78.3529 22.78 77.6899 23.43 76.5199 23.43H73.9459V20.024H76.4029ZM76.6109 24.249C77.8199 24.249 78.5479 24.886 78.5479 25.939C78.5479 27.018 77.8329 27.655 76.6109 27.655H73.9459V24.249H76.6109ZM90.9797 23.846C90.9797 21.012 89.1597 19.023 86.5467 19.023C83.9467 19.023 82.1137 21.025 82.1137 23.846C82.1137 26.667 83.9337 28.656 86.5467 28.656C89.1467 28.656 90.9797 26.667 90.9797 23.846ZM90.0177 23.846C90.0177 26.16 88.6007 27.759 86.5467 27.759C84.4927 27.759 83.0887 26.173 83.0887 23.846C83.0887 21.519 84.4927 19.933 86.5467 19.933C88.6007 19.933 90.0177 21.519 90.0177 23.846ZM94.1119 25.263C94.1119 27.382 95.4119 28.656 97.5699 28.656C99.6889 28.656 100.989 27.369 100.989 25.263V19.192H100.053V25.224C100.053 26.836 99.1559 27.746 97.5699 27.746C95.9449 27.746 95.0479 26.862 95.0479 25.224V19.192H94.1119V25.263ZM103.716 20.05H106.576V28.5H107.512V20.05H110.385V19.192H103.716V20.05ZM119.201 28.5V23.937C119.201 22.52 119.175 21.493 119.123 21.142L122.152 28.5H123.049L126.078 21.103C126.026 21.74 126 22.455 126 24.08V28.5H126.923V19.192H125.987L122.594 27.395L119.201 19.192H118.278V28.5H119.201ZM136.261 28.5V27.642H131.62V24.249H135.819V23.404H131.62V20.05H136.248V19.192H130.684V28.5H136.261Z" fill="#DAC5A7"/>
<defs>
<filter id="filter0_b_2057_2970" x="-30" y="-30" width="106" height="106" filterUnits="userSpaceOnUse" color-interpolation-filters="sRGB">
<feFlood flood-opacity="0" result="BackgroundImageFix"/>
<feGaussianBlur in="BackgroundImageFix" stdDeviation="15"/>
<feComposite in2="SourceAlpha" operator="in" result="effect1_backgroundBlur_2057_2970"/>
<feBlend mode="normal" in="SourceGraphic" in2="effect1_backgroundBlur_2057_2970" result="shape"/>
</filter>
</defs>
</svg>
